<svg width="52" height="52" viewBox="0 0 52 52" fill="none" xmlns="http://www.w3.org/2000/svg">
<g clip-path="url(#clip0_47_1079)">
<path d="M52 0H0V52H52V0Z" fill="#FF5F85"/>
<path d="M40.7722 40.0111C40.6342 41.1745 39.6629 42.0402 38.5266 42.0402C37.3606 42.0402 36.3893 41.1745 36.2811 40.0111V31.1371C36.1729 30.2687 36.576 29.4597 37.3092 28.9998C38.0667 28.5398 38.9866 28.5398 39.7143 28.9998C40.4475 29.4597 40.8506 30.2687 40.7722 31.1371V40.0111Z" fill="white"/>
<path d="M28.325 40.0112C28.2168 41.1745 27.2455 42.0403 26.0794 42.0403C24.9431 42.0403 23.9719 41.1745 23.8339 40.0112V12.4422C23.7554 11.6035 24.1585 10.7621 24.8917 10.3049C25.6195 9.84497 26.5394 9.84497 27.2996 10.3049C28.0301 10.7621 28.4332 11.6035 28.325 12.4422V40.0112Z" fill="white"/>
<path d="M15.7175 40.0112C15.6092 41.1745 14.638 42.0403 13.4719 42.0403C12.3085 42.0403 11.3346 41.1745 11.229 40.0112V21.3162C11.1479 20.4748 11.551 19.6388 12.2842 19.1789C13.012 18.719 13.9345 18.719 14.665 19.1789C15.3928 19.6388 15.8013 20.4748 15.7175 21.3162V40.0112Z" fill="white"/>
</g>
<defs>
<clipPath id="clip0_47_1079">
<rect width="52" height="52" fill="white"/>
</clipPath>
</defs>
</svg>
